<svg xmlns="http://www.w3.org/2000/svg" width="400" height="400" viewBox="0 0 400 400">
  <rect width="400" height="400" fill="#ec4899" />
  <g fill="#ffffff" transform="translate(100, 80)">
    <path d="M40,0 L160,0 C180,0 200,20 200,40 L200,200 C200,220 180,240 160,240 L40,240 C20,240 0,220 0,200 L0,40 C0,20 20,0 40,0 Z" />
    <path d="M60,60 L140,60 L140,100 L60,100 Z" />
    <path d="M60,120 L140,120 L140,140 L60,140 Z" />
    <path d="M60,160 L140,160 L140,180 L60,180 Z" />
    <circle cx="160" cy="70" r="15" />
  </g>
</svg>