<svg xmlns="http://www.w3.org/2000/svg" width="400" height="400" viewBox="0 0 400 400">
  <rect width="400" height="400" fill="#f59e0b" />
  <g fill="#ffffff" transform="translate(100, 80)">
    <path d="M40,0 L160,0 C180,0 200,20 200,40 L200,200 C200,220 180,240 160,240 L40,240 C20,240 0,220 0,200 L0,40 C0,20 20,0 40,0 Z" />
    <circle cx="70" cy="80" r="30" />
    <circle cx="130" cy="80" r="30" />
    <path d="M40,140 L160,140 C160,180 120,220 100,220 C80,220 40,180 40,140 Z" />
  </g>
</svg>